HIERARCHY
ROOT joint_0
{
	OFFSET 0.000000 0.000000 0.000000
	CHANNELS 6 Xposition Yposition Zposition Zrotation Yrotation Xrotation 
	JOINT joint_1
	{
		OFFSET 0.000000 0.000000 0.000000
		CHANNELS 3 Zrotation Yrotation Xrotation
		JOINT joint_2
		{
			OFFSET 3.811170 -8.520760 0.839290
			CHANNELS 3 Zrotation Yrotation Xrotation
			JOINT joint_3
			{
				OFFSET 2.562200 -7.039590 0.000000
				CHANNELS 3 Zrotation Yrotation Xrotation
				JOINT joint_4
				{
					OFFSET 0.157640 -0.433110 2.322550
					CHANNELS 3 Zrotation Yrotation Xrotation
					End Site
					{
						OFFSET 0.000000 0.000000 0.000000
					}
				}
			}
		}
	}
	JOINT joint_5
	{
		OFFSET 0.000000 0.000000 0.000000
		CHANNELS 3 Zrotation Yrotation Xrotation
		JOINT joint_6
		{
			OFFSET -3.848050 -8.780180 0.839290
			CHANNELS 3 Zrotation Yrotation Xrotation
			JOINT joint_7
			{
				OFFSET -2.568260 -7.056230 0.000000
				CHANNELS 3 Zrotation Yrotation Xrotation
				JOINT joint_8
				{
					OFFSET -0.164730 -0.452590 2.363150
					CHANNELS 3 Zrotation Yrotation Xrotation
					End Site
					{
						OFFSET 0.000000 0.000000 0.000000
					}
				}
			}
		}
	}
	JOINT joint_9
	{
		OFFSET 0.028270 2.035590 -0.193380
		CHANNELS 3 Zrotation Yrotation Xrotation
		JOINT joint_10
		{
			OFFSET 0.056720 2.048850 -0.042750
			CHANNELS 3 Zrotation Yrotation Xrotation
			JOINT joint_11
			{
				OFFSET -0.054170 1.746240 0.172020
				CHANNELS 3 Zrotation Yrotation Xrotation
				JOINT joint_12
				{
					OFFSET 0.104070 1.761360 -0.123970
					CHANNELS 3 Zrotation Yrotation Xrotation
					End Site
					{
						OFFSET 0.000000 0.000000 0.000000
					}
				}
			}
			JOINT joint_13
			{
				OFFSET 3.362410 1.200890 -0.311210
				CHANNELS 3 Zrotation Yrotation Xrotation
				JOINT joint_14
				{
					OFFSET 4.983000 -0.000000 -0.000000
					CHANNELS 3 Zrotation Yrotation Xrotation
					JOINT joint_15
					{
						OFFSET 3.483560 -0.000000 -0.000000
						CHANNELS 3 Zrotation Yrotation Xrotation
						JOINT joint_16
						{
							OFFSET 0.715260 -0.000000 -0.000000
							CHANNELS 3 Zrotation Yrotation Xrotation
							End Site
							{
								OFFSET 0.000000 0.000000 0.000000
							}
						}
					}
				}
			}
			JOINT joint_17
			{
				OFFSET -3.136600 1.374050 -0.404650
				CHANNELS 3 Zrotation Yrotation Xrotation
				JOINT joint_18
				{
					OFFSET -5.241900 -0.000000 -0.000000
					CHANNELS 3 Zrotation Yrotation Xrotation
					JOINT joint_19
					{
						OFFSET -3.444170 -0.000000 -0.000000
						CHANNELS 3 Zrotation Yrotation Xrotation
						JOINT joint_20
						{
							OFFSET -0.622530 -0.000000 -0.000000
							CHANNELS 3 Zrotation Yrotation Xrotation
							End Site
							{
								OFFSET 0.000000 0.000000 0.000000
							}
						}
					}
				}
			}
		}
	}
}
MOTION
Frames: 13
Frame Time: 0.031667
-2.459858 14.507683 5.742495 170.276443 -42.221558 178.379807 -59.769222 -23.824997 -17.476481 -14.682784 -4.963601 21.696309 -19.281147 9.739725 -29.998370 0.269479 -3.095152 -8.537729 -15.273025 -10.133733 24.712984 68.707179 -32.363214 -7.421557 26.486503 -0.198747 -76.350368 -0.200117 -2.378887 6.766102 3.453643 12.648884 2.935742 2.004443 -2.932967 -8.625061 2.373271 -1.845896 5.971851 0.278455 -3.327565 5.637741 -65.538696 -2.642448 -5.092949 7.024350 -61.444086 -0.216224 -2.748313 -5.755342 -8.635610 -6.429023 0.026419 0.038665 94.038115 21.511783 48.872155 -175.558819 12.704184 -113.538003 -3.261740 -11.650078 -8.056873 6.607860 -0.031398 -0.014399 
-2.618448 14.527208 5.658350 170.375656 -37.557163 178.634201 -50.762618 0.054377 -35.592498 -8.098978 -2.542687 26.043191 -18.800022 9.537332 -27.742844 0.278720 -2.877452 -8.041565 -12.438749 -9.475168 21.188874 67.946545 -25.248572 1.653926 32.450747 0.403960 -80.926018 -0.236904 -2.810377 8.012297 -2.258863 13.341663 3.024632 1.260208 -4.922127 -6.841702 1.086619 -1.608651 7.203408 -0.339014 -3.195432 7.315233 -56.669247 -1.347937 -11.415596 12.050969 -60.586573 -11.470711 -3.447013 -7.238207 -3.637201 -6.424205 0.036282 0.044643 95.905262 30.940910 44.040924 -174.454625 20.112857 -136.584091 -0.160067 -2.253095 -5.876957 6.601173 -0.028786 -0.010295 
-2.764054 14.545231 5.564871 170.413406 -32.941769 178.892181 -52.223032 -1.758262 -36.256404 -6.836017 0.721267 26.606542 -11.881551 0.096839 -26.423410 0.128925 2.192498 5.984529 -11.482542 -11.127868 22.341103 63.901313 -28.250610 -1.109420 33.931624 -4.668830 -81.968826 -0.463147 -3.618161 10.457687 0.301089 8.750828 2.507057 -0.075250 -2.874425 -8.927305 -1.009706 -1.936950 14.997271 -1.390655 -2.592226 7.463467 -67.445297 -5.785403 -3.133259 -8.356049 -60.402179 5.975667 0.161927 -4.620674 -2.727375 -6.437365 0.027021 0.035742 95.272525 21.282702 47.804762 -167.149520 11.863860 -121.741386 0.361644 -0.480655 -0.637107 6.603912 -0.030027 -0.015525 
-2.906213 14.562422 5.467940 170.488632 -28.315804 179.197021 -52.753279 -3.946417 -35.817285 -3.919779 -0.808240 28.410633 -8.537915 -5.877768 -22.970288 0.256113 -2.802846 -8.005562 -11.380861 -9.331516 19.624304 68.780093 -24.807904 -5.239811 33.762431 -7.749423 -79.661724 -0.429315 -3.510535 9.957476 -1.861358 19.546562 8.299086 -3.944044 -14.322887 -3.447426 0.450934 -0.269404 10.802239 -1.590621 -2.401334 7.513118 -58.070511 -3.309767 -7.229373 1.456157 -59.375445 -5.501171 6.656118 -2.874135 3.300041 -6.394591 0.022056 0.032237 99.509239 21.676516 48.254036 -149.800310 4.138477 -134.827259 0.771806 -5.758278 -4.731778 6.551587 -0.034133 -0.022160 
-3.037075 14.576888 5.359700 170.548111 -23.823706 179.467407 -45.529167 3.553701 -43.916772 -1.089555 0.741455 26.050648 -6.035780 -13.346579 -17.584868 0.208469 -2.621529 -7.373018 -12.164550 -10.900328 18.694199 69.903063 -19.467036 -9.919100 23.644619 -0.675228 -74.316813 -0.352719 3.334930 -9.064975 -0.988938 6.314156 2.044774 -2.516939 -9.667876 -1.006591 13.138078 -13.391611 1.273970 -1.296675 -3.565306 6.896157 -56.377832 -8.049369 -0.806861 -8.922956 -66.435181 8.407403 2.467658 0.545258 0.795205 -6.437108 0.025065 0.032752 102.797372 19.911265 51.450930 -177.816292 24.365282 -122.738995 -0.217137 -11.099064 -7.560776 6.590476 -0.030134 -0.018969 
-3.164959 14.590025 5.247998 170.648514 -19.354546 179.764572 -40.188723 -5.886798 -47.029588 -3.033467 2.858727 24.567758 -3.264298 -13.001152 -16.418399 0.255173 -2.988799 -8.413553 -13.214035 -9.422945 22.152422 65.620792 -23.784000 -9.994997 27.304677 -7.831850 -80.247569 -0.492290 -3.524605 10.048515 -8.597820 14.743733 2.070384 -6.093365 0.766879 4.269015 -6.091636 -5.814940 0.827978 -2.389102 -3.352766 6.717696 -53.161802 -5.582650 1.143395 7.522660 -61.582292 -9.327777 4.824058 -0.617244 5.378063 -6.474096 0.023050 0.030596 98.234116 30.344331 48.820482 173.124612 17.337330 -131.878385 -2.054589 -6.772327 -6.152242 6.644268 -0.032872 -0.019144 
-3.282469 14.598531 5.124234 170.778320 -15.053505 -179.976471 -42.346078 -6.358800 -48.166366 -4.928862 3.817513 31.086201 3.670135 -8.159265 -12.362816 2.010637 0.778853 -7.354317 -8.619970 -9.294274 16.967771 69.045023 -26.227616 -8.830484 33.697301 -11.217712 -74.421085 -0.834287 3.284510 -9.121838 0.774564 8.805245 -0.822790 -6.957895 -8.365307 5.909563 6.068309 -10.407906 2.793401 -1.429642 -4.717792 6.186766 -48.247608 -3.868272 -10.531329 -2.123063 -65.984930 -6.484435 6.295288 -2.708287 14.043737 -6.567598 0.023170 0.029772 100.038130 26.748968 53.536188 173.961289 24.602245 -127.480949 -1.816219 2.652520 -1.338254 6.750905 -0.035088 -0.020473 
-3.397201 14.605514 4.997565 170.957077 -10.781870 -179.693497 -36.481832 -2.964035 -51.290165 -4.408073 1.426773 27.810627 -1.789069 -9.397528 -16.203612 0.308706 2.948646 7.815298 -8.897252 -11.309661 16.157569 57.022702 -30.835737 -0.218713 30.028327 -7.265562 -76.819557 -1.518642 -1.913665 8.914912 -4.369274 10.350690 -2.151148 0.640154 -11.870694 -10.821475 2.453970 -3.972962 6.397359 -2.628810 -4.837047 5.845831 -53.402205 -16.166987 -9.022471 1.599477 -57.449856 -2.456390 5.557359 5.646400 -2.795479 -6.593765 0.031936 0.038055 96.431053 29.523260 50.156833 177.753982 18.755176 -128.018537 -0.019887 2.602890 -0.025531 6.783334 -0.032393 -0.015371 
-3.501622 14.606843 4.860115 171.189468 -6.673385 -179.448105 -39.544089 -1.736410 -52.503532 -0.969894 -0.840120 28.049828 2.213067 -10.232484 -11.740262 0.309853 2.636842 6.359811 -8.549390 -10.510087 13.323733 54.822256 -24.393150 3.279555 29.368079 -11.870874 -70.398935 -0.240210 -2.829781 7.970839 -4.165858 10.986017 -7.219455 -5.491936 -1.373680 -10.909536 3.130439 -4.288835 1.611389 -2.428699 -4.861807 4.336874 -52.485703 -7.081818 -6.593225 12.291024 -62.798770 -10.938360 -5.031023 -2.896551 3.297609 -6.565492 0.030622 0.038607 93.852096 29.643811 50.350198 -152.533869 4.902534 -125.061063 -0.774845 -0.187279 0.099123 6.739405 -0.030901 -0.014312 
-3.603539 14.607029 4.720396 171.478287 -2.584581 -179.173004 -31.171652 3.416970 -42.223540 1.496354 1.625378 29.171491 1.231893 -8.174052 -5.227563 0.102127 -1.721410 -4.894772 -4.737904 -6.202786 8.758280 51.850448 -28.579493 8.683966 31.167175 -1.137559 -60.995369 -0.114988 -1.330778 4.329345 -1.465000 10.709574 -4.215143 -2.991513 2.668881 -9.658521 7.771197 -6.594241 3.678543 -2.740271 -4.923268 4.004858 -45.518934 2.091773 -4.437464 -3.415887 -66.444632 -1.749835 -1.478125 3.827926 1.000299 -6.622198 0.043500 0.062136 87.508295 23.468130 55.270962 -165.364548 12.294671 -164.950522 -0.540082 -0.603148 1.559386 6.813871 -0.021130 0.003204 
-3.695530 14.602684 4.571686 171.832626 1.375654 -178.939560 -37.058580 -5.408752 -49.425846 -5.518793 5.692256 21.414271 -0.230919 -11.120534 -6.597642 0.186912 -2.546905 -7.221752 -8.585950 -11.030797 11.718620 60.866543 -31.961583 5.528518 31.533410 -9.216250 -71.455636 -0.078970 1.665622 -4.495402 0.666170 13.119881 -9.618261 -5.189837 -0.907612 -8.214662 0.366845 -1.643198 0.478004 -4.427055 -4.930907 1.645487 -49.637260 2.511186 -5.499001 10.069342 -65.566348 -7.595854 -6.878476 -3.221698 3.549563 -6.604716 0.033868 0.056976 100.006881 38.106774 54.793956 -144.726381 -2.350962 -125.438041 7.014331 -6.449181 7.730618 6.798982 -0.025542 -0.003434 
-3.785338 14.597994 4.421126 172.246323 5.330235 -178.664795 -28.327490 -9.059817 -40.787759 -6.030304 0.368573 30.239611 1.009687 -11.457867 -6.791323 0.193969 -2.581191 -7.351843 -9.780925 -10.636682 9.612746 43.340480 -40.207499 18.369958 27.328561 -2.780704 -60.897658 -0.173954 -2.379496 6.755597 -0.880599 4.469842 -6.358475 -4.930574 -0.358686 -5.920956 6.193117 -6.368176 -12.659095 -4.151935 -5.299251 -0.338135 -49.056949 -0.364096 2.946065 11.320583 -66.449271 -20.512578 -4.395996 0.029758 3.396219 -6.699096 0.031582 0.060693 82.304720 22.707531 62.284927 -138.842067 7.490834 -153.230157 -9.380640 6.496948 -2.285594 6.877924 -0.025748 -0.000871 
-3.865871 14.591835 4.262709 172.722534 9.200757 -178.432083 -28.322951 3.298607 -45.995027 2.551364 -1.820497 32.993679 3.902077 -12.701124 -7.566663 0.087527 -1.711271 -4.819481 -9.128059 -10.969530 6.940307 50.530777 -25.696522 11.212039 24.417802 -5.666053 -57.050690 -0.249724 -2.771183 8.054252 4.417527 4.120719 -9.178346 -6.293737 1.127782 -7.241140 10.351162 -7.208440 -6.970234 -4.043949 -5.270271 -1.258143 -45.368083 6.651412 2.759084 -13.823672 -69.660838 20.800410 -0.227308 0.016389 0.374676 -6.751974 0.035676 0.064564 91.703530 31.900145 45.213449 178.575291 15.412631 -123.479451 2.177626 4.123448 4.767888 6.922782 -0.022945 0.004857 
